# xmcd CD database file
#
# Track frame offsets:
#	150
#	20447
#	44383
#	62420
#	80791
#	104484
#	124811
#	139606
#	161733
#	193199
#	215723
#	248772
#	269858
#	301108
#
# Disc length: 4263 seconds
#
# Revision: 0
# Processed by: cddbd v1.4PL0 Copyright (c) Steve Scherf et al.
# Submitted via: CDex 1.50Beta7
#
DISCID=d010a50e
DTITLE=Habana Express - El tiro por la culata
DYEAR=1900
DGENRE=Salsa
TTITLE0=Maria Cristina
TTITLE1=Loco por mi
TTITLE2=Nena
TTITLE3=In assenza di te
TTITLE4=Gangster's paradise
TTITLE5=Hombre Vulgar
TTITLE6=Destino
TTITLE7=Guantanamera
TTITLE8=FVeloz
TTITLE9=FVeloz
TTITLE10=FVeloz
TTITLE11=FVeloz
TTITLE12=FVeloz
TTITLE13=FVeloz
EXTD=
EXTT0=
EXTT1=
EXTT2=
EXTT3=
EXTT4=
EXTT5=
EXTT6=
EXTT7=
EXTT8=
EXTT9=
EXTT10=
EXTT11=
EXTT12=
EXTT13=
PLAYORDER=
